<?xml version="1.0" encoding="UTF-8"?>
<svg width="52px" height="52px" viewBox="0 0 52 52" version="1.1" xmlns="http://www.w3.org/2000/svg" xmlns:xlink="http://www.w3.org/1999/xlink">
    <!-- Generator: Sketch 50.2 (55047) - http://www.bohemiancoding.com/sketch -->
    <title>close-icon</title>
    <desc>Created with Sketch.</desc>
    <defs></defs>
    <g id="Page-1" stroke="none" stroke-width="1" fill="none" fill-rule="evenodd">
        <g id="close-icon" transform="translate(1.000000, 1.000000)" stroke="#000000" stroke-width="2">
            <circle id="Oval" cx="25" cy="25" r="25"></circle>
            <g id="Group" transform="translate(17.000000, 16.000000)">
                <g id="Group-2">
                    <path d="M15.571,1.722 C15.571,1.722 16.5371651,0.730633523 16.30529,0.962508596 C15.449833,1.81796562 10.255403,7.02079609 0.722,16.571" id="Shape"></path>
                    <path d="M15.571,1.722 C15.571,1.722 16.5371651,0.730633523 16.30529,0.962508596 C15.449833,1.81796562 10.255403,7.02079609 0.722,16.571" id="Shape" transform="translate(8.531612, 8.749181) rotate(180.000000) translate(-8.531612, -8.749181) "></path>
                </g>
                <g id="Group-2" transform="translate(8.500000, 8.500000) scale(-1, 1) translate(-8.500000, -8.500000) ">
                    <path d="M15.571,1.722 C15.571,1.722 16.5371651,0.730633523 16.30529,0.962508596 C15.449833,1.81796562 10.255403,7.02079609 0.722,16.571" id="Shape"></path>
                    <path d="M15.571,1.722 C15.571,1.722 16.5371651,0.730633523 16.30529,0.962508596 C15.449833,1.81796562 10.255403,7.02079609 0.722,16.571" id="Shape" transform="translate(8.531612, 8.749181) rotate(180.000000) translate(-8.531612, -8.749181) "></path>
                </g>
            </g>
        </g>
    </g>
</svg>